<?xml version="1.0" encoding="UTF-8"?>
<svg width="18px" height="22px" viewBox="0 0 18 22" version="1.1" xmlns="http://www.w3.org/2000/svg" xmlns:xlink="http://www.w3.org/1999/xlink">
    <!-- Generator: Sketch 51.2 (57519) - http://www.bohemiancoding.com/sketch -->
    <title>clipboard</title>
    <desc>Created with Sketch.</desc>
    <defs></defs>
    <g id="Page-1" stroke="none" stroke-width="1" fill="none" fill-rule="evenodd">
        <g id="clipboard" fill="#000000">
            <path d="M13.7239394,7.51846097 C13.4018326,7.52784846 13.0960219,7.6622198 12.8712498,7.89312758 C10.9085797,9.86003945 9.11665211,11.7886909 7.23187129,13.7133714 L5.01617045,11.9369452 C4.66999687,11.6599521 4.20233947,11.5886956 3.78937988,11.7500205 C3.3764203,11.9113454 3.08090525,12.2807392 3.01416481,12.7190393 C2.94742436,13.1573395 3.11959933,13.597949 3.46582584,13.8748759 L6.56651506,16.3554273 C7.06170579,16.7498768 7.77448582,16.7081079 8.22021598,16.2585204 C10.4506513,14.0232956 12.448876,11.8278836 14.628307,9.6437147 C14.992568,9.28629161 15.1007434,8.74224485 14.90092,8.27266217 C14.7010966,7.80307948 14.2340594,7.50380524 13.7239394,7.51846097 Z M10,1 L11.4952612,1 C12.151286,1 12.7092584,1.41489114 12.9151817,2 L16.2082844,2 C17.1978216,2 18,2.89821238 18,3.99079514 L18,20.0092049 C18,21.1086907 17.1916089,22 16.2082844,22 L1.79171562,22 C0.802178408,22 0,21.1017876 0,20.0092049 L0,3.99079514 C0,2.89130934 0.808391143,2 1.79171562,2 L5.08505274,2 C5.29039637,1.41740381 5.84532544,1 6.50473881,1 L8,1 C8,0.44771525 8.44386482,0 9,0 C9.55228475,0 10,0.443864822 10,1 Z" id="Shape"></path>
        </g>
    </g>
</svg>