<?xml version="1.0" encoding="UTF-8"?>
<svg width="14px" height="11px" viewBox="0 0 14 11" version="1.1" xmlns="http://www.w3.org/2000/svg" xmlns:xlink="http://www.w3.org/1999/xlink">
    <!-- Generator: Sketch 51.2 (57519) - http://www.bohemiancoding.com/sketch -->
    <title>clipboard-sad</title>
    <desc>Created with Sketch.</desc>
    <defs></defs>
    <g id="Page-1" stroke="none" stroke-width="1" fill="none" fill-rule="evenodd">
        <g id="clipboard-sad" fill="#000000" fill-rule="nonzero">
            <path d="M9,0.80298446 L9.8029845,0 L11.4089534,1.6065368 L13.0149223,0 L13.8179068,0.80298446 L12.2119378,2.40952126 L13.8179068,4.0160581 L13.0149223,4.8190425 L11.4089534,3.2125057 L9.8029845,4.8190425 L9,4.0160581 L10.6059689,2.40952126 L9,0.80298446 Z M11.3615267,8.8266987 L11.8890887,9.3542606 L11.0861042,10.1572451 L10.5585423,9.6296832 C8.5610395,7.6374651 5.32804915,7.6374651 3.33054639,9.6296832 L2.80298446,10.1572451 L2,9.3542606 L2.52756193,8.8266987 C4.96858069,6.3911004 8.920508,6.3911004 11.3615267,8.8266987 Z M0,0.80298446 L0.80298446,0 L2.40895338,1.6065368 L4.0149223,0 L4.81790676,0.80298446 L3.21193784,2.40952126 L4.81790676,4.0160581 L4.0149223,4.8190425 L2.40895338,3.2125057 L0.80298446,4.8190425 L0,4.0160581 L1.60596892,2.40952126 L0,0.80298446 Z" id="Shape"></path>
        </g>
    </g>
</svg>