<?xml version="1.0" encoding="UTF-8"?>
<svg width="18px" height="22px" viewBox="0 0 18 22" version="1.1" xmlns="http://www.w3.org/2000/svg" xmlns:xlink="http://www.w3.org/1999/xlink">
    <!-- Generator: Sketch 51.2 (57519) - http://www.bohemiancoding.com/sketch -->
    <title>clipboard</title>
    <desc>Created with Sketch.</desc>
    <defs></defs>
    <g id="Page-1" stroke="none" stroke-width="1" fill="none" fill-rule="evenodd">
        <g id="clipboard" fill="#000000">
            <path d="M11,7.80298446 L11.8029845,7 L13.4089534,8.6065368 L15.0149223,7 L15.8179068,7.80298446 L14.2119378,9.40952126 L15.8179068,11.0160581 L15.0149223,11.8190425 L13.4089534,10.2125057 L11.8029845,11.8190425 L11,11.0160581 L12.6059689,9.40952126 L11,7.80298446 Z M13.3615267,15.8266987 L13.8890887,16.3542606 L13.0861042,17.1572451 L12.5585423,16.6296832 C10.5610395,14.6374651 7.32804915,14.6374651 5.33054639,16.6296832 L4.80298446,17.1572451 L4,16.3542606 L4.52756193,15.8266987 C6.96858069,13.3911004 10.920508,13.3911004 13.3615267,15.8266987 Z M2,7.80298446 L2.80298446,7 L4.40895338,8.6065368 L6.0149223,7 L6.81790676,7.80298446 L5.21193784,9.40952126 L6.81790676,11.0160581 L6.0149223,11.8190425 L4.40895338,10.2125057 L2.80298446,11.8190425 L2,11.0160581 L3.60596892,9.40952126 L2,7.80298446 Z M10,1 L11.4952612,1 C12.151286,1 12.7092584,1.41489114 12.9151817,2 L16.2082844,2 C17.1978216,2 18,2.89821238 18,3.99079514 L18,20.0092049 C18,21.1086907 17.1916089,22 16.2082844,22 L1.79171562,22 C0.802178408,22 0,21.1017876 0,20.0092049 L0,3.99079514 C0,2.89130934 0.808391143,2 1.79171562,2 L5.08505274,2 C5.29039637,1.41740381 5.84532544,1 6.50473881,1 L8,1 C8,0.44771525 8.44386482,0 9,0 C9.55228475,0 10,0.443864822 10,1 Z" id="Shape"></path>
        </g>
    </g>
</svg>