<svg width="18px" height="22px" viewBox="0 0 18 22" version="1.1" xmlns="http://www.w3.org/2000/svg" xmlns:xlink="http://www.w3.org/1999/xlink">
    <g id="Page-1" stroke="none" stroke-width="1" fill="none" fill-rule="evenodd">
        <g id="noun_clipboard_1076887" class="fill-target" fill-rule="nonzero">
                    <path d="M10,1 L11.4952612,1 C12.151286,1 12.7092584,1.41489114 12.9151817,2 L16.2082844,2 C17.1978216,2 18,2.89821238 18,3.99079514 L18,20.0092049 C18,21.1086907 17.1916089,22 16.2082844,22 L1.79171562,22 C0.802178408,22 0,21.1017876 0,20.0092049 L0,3.99079514 C0,2.89130934 0.808391143,2 1.79171562,2 L5.08505274,2 C5.29039637,1.41740381 5.84532544,1 6.50473881,1 L8,1 C8,0.44771525 8.44386482,0 9,0 C9.55228475,0 10,0.443864822 10,1 Z M5,12 C5,12.5561352 5.4463856,13 5.99703014,13 L12.0029699,13 C12.5469637,13 13,12.5522847 13,12 C13,11.4438648 12.5536144,11 12.0029699,11 L5.99703014,11 C5.45303631,11 5,11.4477153 5,12 Z M5,8 C5,8.55613518 5.4463856,9 5.99703014,9 L12.0029699,9 C12.5469637,9 13,8.55228475 13,8 C13,7.44386482 12.5536144,7 12.0029699,7 L5.99703014,7 C5.45303631,7 5,7.44771525 5,8 Z M5,16 C5,16.5561352 5.4463856,17 5.99703014,17 L12.0029699,17 C12.5469637,17 13,16.5522847 13,16 C13,15.4438648 12.5536144,15 12.0029699,15 L5.99703014,15 C5.45303631,15 5,15.4477153 5,16 Z"></path>
        </g>
    </g>
</svg>