<svg width="22px" height="23px" viewBox="0 0 22 23" version="1.1" xmlns="http://www.w3.org/2000/svg" xmlns:xlink="http://www.w3.org/1999/xlink">
    <g id="Page-1" stroke="none" stroke-width="1" fill="none" fill-rule="evenodd">
        <g id="noun_copy_61600(2)" fill="#000000" fill-rule="nonzero">
            <path d="M16,2 L11.8,2 C11.4,0.8 10.3,0 9,0 C7.7,0 6.6,0.8 6.2,2 L2,2 C0.9,2 0,2.9 0,4 L0,17 C0,18.1 0.9,19 2,19 L16,19 C17.1,19 18,18.1 18,17 L18,4 C18,2.9 17.1,2 16,2 Z M9,2 C9.6,2 10,2.4 10,3 C10,3.6 9.6,4 9,4 C8.4,4 8,3.6 8,3 C8,2.4 8.4,2 9,2 Z M16,17 L2,17 L2,4 L4,4 L4,6 L14,6 L14,4 L16,4 L16,17 Z" id="Shape"></path>
            <path d="M8,13 L10,13 L10,15 L8,15 L8,13 Z M12,23 L14,23 L14,21 L12,21 L12,23 Z M12,11 L14,11 L14,9 L12,9 L12,11 Z M20,9 L20,11 L22,11 C22,9.9 21.1,9 20,9 Z M16,23 L18,23 L18,21 L16,21 L16,23 Z M8,19 L10,19 L10,17 L8,17 L8,19 Z M20,15 L22,15 L22,13 L20,13 L20,15 Z M10,23 L10,21 L8,21 C8,22.1 8.9,23 10,23 Z M16,11 L18,11 L18,9 L16,9 L16,11 Z M20,23 C21.1,23 22,22.1 22,21 L20,21 L20,23 Z M8,11 L10,11 L10,9 C8.9,9 8,9.9 8,11 Z M20,19 L22,19 L22,17 L20,17 L20,19 Z" id="Shape"></path>
        </g>
    </g>
</svg>