<svg width="100px" height="100px" viewBox="0 0 100 100" version="1.1" xmlns="http://www.w3.org/2000/svg" xmlns:xlink="http://www.w3.org/1999/xlink">
    <g id="Page-1" stroke="none" stroke-width="1" fill="none" fill-rule="evenodd">
        <g class="fill-target" fill-rule="nonzero">
            <path d="M50,0 C22.386,0 0,22.386 0,50 C0,77.614 22.386,100 50,100 C77.614,100 100,77.614 100,50 C100,22.386 77.614,0 50,0 Z M75.903,63.431 C79.347,66.875 79.347,72.459 75.903,75.904 C74.181,77.627 71.924,78.487 69.668,78.487 C67.41,78.487 65.152,77.627 63.431,75.904 L50,62.472 L36.569,75.903 C34.846,77.626 32.59,78.486 30.333,78.486 C28.077,78.486 25.819,77.626 24.098,75.903 C20.653,72.459 20.653,66.875 24.098,63.43 L37.528,50 L24.097,36.568 C20.652,33.124 20.652,27.54 24.097,24.096 C27.54,20.651 33.124,20.651 36.569,24.096 L50,37.527 L63.431,24.096 C66.875,20.651 72.459,20.651 75.904,24.096 C79.348,27.54 79.348,33.124 75.904,36.568 L62.472,50 L75.903,63.431 Z" id="Shape"></path>
        </g>
    </g>
</svg>