<svg width="90px" height="90px" viewBox="0 0 90 90" version="1.1" xmlns="http://www.w3.org/2000/svg" xmlns:xlink="http://www.w3.org/1999/xlink">
    <g id="Page-1" stroke="none" stroke-width="1" fill="none" fill-rule="evenodd">
        <g id="noun_source_118634" transform="translate(-5.000000, 0.000000)" class="fill-target" fill-rule="nonzero">
            <path d="M50,0 C24.9,0.2 4.8,20.5 5,45.3 C5.2,69.9 25.3,90 50,90 C50,90 50.3,90 50.3,90 C62.3,89.9 73.6,85.2 82,76.6 C90.4,68 95.1,56.7 95,44.7 C94.8,20.1 74.7,0 50,0 Z M36.2,57.7 C37.3,58.8 37.3,60.7 36.2,61.8 C35.6,62.4 34.9,62.6 34.2,62.6 C33.5,62.6 32.7,62.3 32.1,61.7 L17.4,47 C16.3,45.9 16.3,44 17.4,42.9 L32,28.1 C33.1,27 35,27 36.1,28.1 C37.2,29.2 37.2,31.1 36.1,32.2 L23.6,45 L36.2,57.7 Z M57.8,23.6 L46.2,67.9 C45.9,69.2 44.7,70.1 43.4,70.1 C43.2,70.1 42.9,70.1 42.7,70 C41.2,69.6 40.2,68 40.6,66.5 L52.2,22.2 C52.6,20.7 54.2,19.7 55.7,20.1 C57.3,20.5 58.2,22 57.8,23.6 Z M82.6,47 L67.9,61.8 C67.3,62.4 66.6,62.7 65.8,62.7 C65.1,62.7 64.3,62.4 63.8,61.9 C62.7,60.8 62.7,58.9 63.8,57.8 L76.4,45 L63.8,32.3 C62.7,31.2 62.7,29.3 63.8,28.2 C64.9,27.1 66.8,27.1 67.9,28.2 L82.6,43 C83.7,44.1 83.7,45.9 82.6,47 Z" id="Shape"></path>
        </g>
    </g>
</svg>