<svg width="32px" height="32px" viewBox="0 0 32 32" version="1.1" xmlns="http://www.w3.org/2000/svg" xmlns:xlink="http://www.w3.org/1999/xlink">
    <defs>
        <path d="M16,32 C7.163444,32 0,24.836556 0,16 C0,7.163444 7.163444,0 16,0 C24.836556,0 32,7.163444 32,16 C32,24.836556 24.836556,32 16,32 Z M25.9875,12.80625 C25.98125,12.78125 25.98125,12.75625 25.975,12.7375 C25.96875,12.725 25.96875,12.7125 25.9625,12.69375 C25.95625,12.675 25.95,12.65 25.9375,12.63125 C25.93125,12.61875 25.925,12.60625 25.91875,12.5875 C25.9125,12.56875 25.9,12.55 25.8875,12.53125 C25.88125,12.51875 25.875,12.50625 25.8625,12.49375 C25.85,12.475 25.8375,12.45625 25.825,12.44375 C25.81875,12.43125 25.80625,12.41875 25.79375,12.40625 C25.78125,12.3875 25.76875,12.375 25.75,12.3625 C25.7375,12.35 25.725,12.3375 25.71875,12.33125 C25.70625,12.31875 25.6875,12.30625 25.66875,12.2875 C25.65625,12.275 25.64375,12.26875 25.63125,12.25625 C25.625,12.25 25.625,12.25 25.61875,12.24375 L16.475,6.14375 C16.1875,5.95 15.8125,5.95 15.51875,6.14375 L6.375,12.2375 C6.36875,12.24375 6.36875,12.24375 6.3625,12.25 C6.35,12.25625 6.3375,12.26875 6.325,12.28125 C6.30625,12.29375 6.29375,12.30625 6.275,12.325 C6.2625,12.3375 6.25,12.35 6.24375,12.35625 C6.23125,12.36875 6.2125,12.3875 6.2,12.4 C6.1875,12.4125 6.18125,12.425 6.16875,12.4375 C6.15625,12.45625 6.14375,12.475 6.13125,12.4875 C6.125,12.5 6.1125,12.5125 6.10625,12.525 C6.09375,12.54375 6.0875,12.5625 6.075,12.58125 C6.06875,12.59375 6.0625,12.60625 6.05625,12.625 C6.05,12.64375 6.04375,12.66875 6.03125,12.6875 C6.025,12.7 6.025,12.7125 6.01875,12.73125 C6.0125,12.75625 6.00625,12.78125 6.00625,12.8 C6.00625,12.8125 6,12.825 6,12.8375 C5.99375,12.875 5.99375,12.9125 5.99375,12.95 L5.99375,19.04375 C5.99375,19.08125 5.99375,19.11875 6,19.15625 C6,19.16875 6.00625,19.18125 6.00625,19.19375 C6.0125,19.21875 6.0125,19.24375 6.01875,19.26875 C6.025,19.28125 6.025,19.29375 6.03125,19.3125 C6.0375,19.33125 6.04375,19.35625 6.05625,19.375 C6.0625,19.3875 6.06875,19.4 6.075,19.41875 C6.08125,19.4375 6.09375,19.45625 6.10625,19.475 C6.1125,19.4875 6.125,19.5 6.13125,19.5125 C6.14375,19.53125 6.15625,19.55 6.16875,19.5625 C6.175,19.575 6.1875,19.5875 6.2,19.6 C6.2125,19.61875 6.225,19.63125 6.24375,19.64375 C6.25625,19.65625 6.26875,19.66875 6.275,19.675 C6.2875,19.6875 6.30625,19.7 6.325,19.71875 C6.3375,19.73125 6.35,19.7375 6.3625,19.75 C6.36875,19.75625 6.36875,19.75625 6.375,19.7625 L15.51875,25.85625 C15.6625,25.95 15.83125,26 15.99375,26 C16.1625,26 16.325,25.95 16.46875,25.85625 L25.6125,19.7625 C25.61875,19.75625 25.625,19.75625 25.625,19.75 C25.6375,19.7375 25.65,19.73125 25.6625,19.71875 C25.68125,19.70625 25.69375,19.69375 25.7125,19.675 C25.725,19.6625 25.7375,19.65 25.74375,19.64375 C25.75625,19.63125 25.775,19.6125 25.7875,19.6 C25.8,19.5875 25.80625,19.575 25.81875,19.5625 C25.83125,19.54375 25.84375,19.525 25.85625,19.5125 C25.8625,19.5 25.875,19.4875 25.88125,19.475 C25.89375,19.45625 25.9,19.4375 25.9125,19.41875 C25.91875,19.40625 25.925,19.39375 25.93125,19.375 C25.9375,19.35625 25.94375,19.33125 25.95625,19.3125 C25.9625,19.3 25.96875,19.2875 25.96875,19.26875 C25.975,19.24375 25.98125,19.21875 25.98125,19.19375 C25.98125,19.18125 25.9875,19.16875 25.9875,19.15625 C25.99375,19.11875 25.99375,19.08125 25.99375,19.04375 L25.99375,12.95 C25.99375,12.9125 25.99375,12.875 25.9875,12.8375 C25.99375,12.825 25.9875,12.81875 25.9875,12.80625 Z M16,18.03125 L12.9625,16 L16,13.96875 L19.0375,16 L16,18.03125 Z M15.14375,12.475 L11.41875,14.96875 L8.4125,12.95625 L15.14375,8.46874271 C15.14375,8.4625 15.14375,12.475 15.14375,12.475 Z M9.86875,16 L7.71875,17.4375 L7.71875,14.5625 L9.86875,16 Z M11.4125,17.03125 L15.1375,19.525 L15.1375,23.53125 L8.40625,19.04375 L11.4125,17.03125 Z M16.85625,19.525 L20.58125,17.03125 L23.5875,19.04375 L16.85625,23.53125 L16.85625,19.525 Z M22.13125,16 L24.28125,14.5625 L24.28125,17.4375 L22.13125,16 Z M20.5875,14.96875 L16.8625,12.475 L16.8625,8.46875 L23.59375,12.95625 L20.5875,14.96875 Z" id="path-1"></path>
    </defs>
    <g stroke="none" stroke-width="1" fill="none" fill-rule="evenodd">
        <g id="codepen">
            <g id="logo">
                <mask id="mask-2" fill="white">
                    <use xlink:href="#path-1"></use>
                </mask>
                <use id="Combined-Shape" class="fill-target" fill-rule="nonzero" xlink:href="#path-1"></use>
            </g>
        </g>
    </g>
</svg>