<svg width="74px" height="98px" viewBox="0 0 74 98" version="1.1" xmlns="http://www.w3.org/2000/svg" xmlns:xlink="http://www.w3.org/1999/xlink">
    <g id="Page-1" stroke="none" stroke-width="1" fill="none" fill-rule="evenodd">
        <g id="noun_PDF_3071298" transform="translate(-13.000000, 0.000000)" class="fill-target" fill-rule="nonzero">
            <g id="Group" transform="translate(13.000000, 0.000000)">
                <path d="M19.1,37.7 C21.9,37.7 24,37.1 25.3,35.9 C26.7,34.7 27.3,32.8 27.3,30.3 C27.3,27.7 26.6,25.8 25.3,24.6 C24,23.4 21.9,22.7 19,22.7 L12.3,22.7 L12.3,43.5 L16.5,43.5 L16.5,37.7 L19.1,37.7 Z M16.5,26.7 L18.9,26.7 C20.3,26.7 21.3,27 22,27.5 C22.7,28 23,28.9 23,30.1 C23,31.3 22.7,32.2 22.2,32.8 C21.7,33.4 20.7,33.7 19.3,33.7 L16.5,33.7 L16.5,26.7 Z" id="Shape"></path>
                <path d="M43.8,40.6 C45.6,38.7 46.4,36.2 46.4,32.9 C46.4,29.7 45.5,27.1 43.7,25.3 C41.9,23.5 39.3,22.6 35.9,22.6 L29.2,22.6 L29.2,43.4 L35.7,43.4 C39.3,43.5 42,42.5 43.8,40.6 Z M40.6,37.8 C39.6,38.9 38.1,39.4 36.2,39.4 L33.5,39.4 L33.5,26.7 L35.9,26.7 C38,26.7 39.6,27.3 40.7,28.4 C41.7,29.5 42.3,31.1 42.3,33.1 C42.2,35.1 41.6,36.7 40.6,37.8 Z" id="Shape"></path>
                <polygon id="Shape" points="61.7 26.8 61.7 22.7 48.7 22.7 48.7 43.5 52.9 43.5 52.9 35.3 61.2 35.3 61.2 31.3 52.9 31.3 52.9 26.8"></polygon>
                <path d="M67.2,0.8 L6.8,0.8 C3.3,0.8 0.5,3.6 0.5,7.1 L0.5,80.9 C0.5,84.4 3.3,87.2 6.8,87.2 L20.7,87.2 L18.8,85.3 L16.9,83.4 L6.9,83.4 C5.5,83.4 4.4,82.3 4.4,80.9 L4.4,7.1 C4.4,5.7 5.5,4.6 6.9,4.6 L67.4,4.6 C68.8,4.6 69.9,5.7 69.9,7.1 L69.9,80.9 C69.9,82.3 68.8,83.4 67.4,83.4 L58.8,83.4 L56.9,85.3 L55,87.2 L67.4,87.2 C70.9,87.2 73.7,84.4 73.7,80.9 L73.7,7.1 C73.6,3.6 70.7,0.8 67.2,0.8 Z" id="Shape"></path>
                <polygon id="Shape" points="59.1 75.4 46 75.3 46 53.7 28 53.7 28 75 14.9 74.8 37.3 97.2"></polygon>
            </g>
        </g>
    </g>
</svg>