<?xml version="1.0" standalone="no"?>
<!DOCTYPE svg PUBLIC "-//W3C//DTD SVG 20010904//EN"
 "http://www.w3.org/TR/2001/REC-SVG-20010904/DTD/svg10.dtd">
<svg version="1.0" xmlns="http://www.w3.org/2000/svg"
 width="289.000000pt" height="289.000000pt" viewBox="0 0 289.000000 289.000000"
 preserveAspectRatio="xMidYMid meet">
<metadata>
Created by potrace 1.14, written by Peter Selinger 2001-2017
</metadata>
<g transform="translate(0.000000,289.000000) scale(0.100000,-0.100000)"
fill="#000000" stroke="none">
<path d="M1278 2855 c-2 -1 -23 -5 -48 -9 -119 -15 -204 -43 -335 -109 -111
-55 -175 -99 -248 -171 -63 -61 -137 -156 -137 -176 0 -5 -4 -10 -9 -10 -5 0
-12 -10 -16 -22 -4 -13 -8 -25 -10 -28 -27 -62 -35 -81 -39 -101 -3 -13 -8
-35 -12 -49 -3 -14 -8 -95 -11 -180 l-6 -155 -48 -49 c-27 -27 -54 -62 -61
-78 -7 -15 -16 -28 -20 -28 -5 0 -7 -3 -6 -7 1 -5 -2 -23 -6 -41 -12 -50 32
-104 95 -118 13 -3 31 -7 39 -9 8 -2 20 -4 26 -4 6 -1 17 -14 24 -31 13 -31
60 -85 81 -92 8 -3 13 -23 13 -55 l1 -51 -38 19 c-27 14 -42 17 -55 10 -85
-45 -70 -166 51 -422 56 -119 87 -161 123 -173 12 -4 29 -25 40 -49 20 -45
102 -189 112 -197 4 -3 25 -27 47 -55 49 -61 137 -149 189 -190 21 -16 45 -36
52 -42 7 -7 17 -13 23 -13 6 0 11 -4 11 -10 0 -5 7 -10 15 -10 8 0 15 -4 15
-9 0 -5 10 -13 23 -17 12 -4 24 -10 27 -14 6 -8 108 -60 130 -66 142 -38 161
-42 236 -39 129 5 228 40 359 128 61 41 193 168 230 221 11 15 25 34 32 41 28
29 153 253 159 285 0 3 3 12 7 20 9 23 38 113 43 132 2 10 6 27 9 38 13 51 16
68 22 113 5 44 8 48 32 46 14 -1 36 -1 48 -1 23 2 70 56 78 88 2 11 9 39 16
64 25 104 34 171 33 270 0 180 -108 279 -201 184 -28 -29 -37 -34 -44 -23 -13
20 -11 46 4 61 7 7 18 31 24 54 9 37 0 109 -31 234 -9 36 -16 67 -20 90 -9 47
-54 205 -77 265 -34 93 -98 193 -169 266 -67 68 -190 159 -216 159 -8 0 -14 4
-14 9 0 8 -106 52 -123 51 -4 0 -20 6 -35 14 -15 7 -49 17 -76 20 -27 4 -54
10 -60 13 -9 6 -292 13 -298 8z"/>
</g>
</svg>
