<svg width="22" height="29" viewBox="0 0 22 29" fill="none" xmlns="http://www.w3.org/2000/svg">
<path d="M21.5389 22.2822C21.1439 23.2604 20.6764 24.1609 20.1347 24.9888C19.3963 26.1174 18.7917 26.8986 18.3258 27.3324C17.6035 28.0445 16.8297 28.4091 16.001 28.4299C15.4061 28.4299 14.6887 28.2484 13.8536 27.8803C13.0157 27.5139 12.2457 27.3324 11.5417 27.3324C10.8033 27.3324 10.0114 27.5139 9.16436 27.8803C8.31602 28.2484 7.63261 28.4403 7.1101 28.4593C6.31545 28.4956 5.52338 28.1205 4.73276 27.3324C4.22814 26.8605 3.59697 26.0517 2.84085 24.9058C2.02959 23.6821 1.36263 22.2632 0.840115 20.6454C0.280522 18.8981 0 17.206 0 15.5679C0 13.6914 0.37822 12.073 1.13579 10.7168C1.73117 9.62742 2.52324 8.76808 3.51458 8.13724C4.50592 7.50639 5.57706 7.18492 6.73059 7.16436C7.36176 7.16436 8.18946 7.37366 9.21804 7.785C10.2437 8.19773 10.9023 8.40703 11.191 8.40703C11.4069 8.40703 12.1385 8.1623 13.3788 7.67439C14.5517 7.22191 15.5415 7.03456 16.3525 7.10836C18.5499 7.29848 20.2008 8.22711 21.2987 9.90015C19.3334 11.1767 18.3613 12.9647 18.3806 15.2584C18.3984 17.0449 19.0029 18.5317 20.1911 19.7121C20.7296 20.26 21.3309 20.6835 22 20.9842C21.8549 21.4353 21.7017 21.8674 21.5389 22.2822ZM16.4992 1.02183C16.4992 2.42215 16.022 3.72962 15.0708 4.93981C13.9229 6.37848 12.5345 7.20981 11.0289 7.07863C11.0097 6.91063 10.9985 6.73383 10.9985 6.54803C10.9985 5.20372 11.5444 3.76505 12.5139 2.58874C12.9978 1.99315 13.6134 1.49793 14.3598 1.10289C15.1046 0.713731 15.8092 0.498518 16.4718 0.46167C16.4911 0.648867 16.4992 0.836081 16.4992 1.02181V1.02183Z" fill="#094327"/>
</svg>
