<svg width="342" height="156" viewBox="0 0 342 156" fill="none" xmlns="http://www.w3.org/2000/svg">
<path d="M234.8 146.9C236.9 139.7 236.1 133.1 232.6 128.2C229.4 123.7 224 121.1 217.5 120.8L94.4 119.2C93.6 119.2 92.9 118.8 92.5 118.2C92.1 117.6 92 116.8 92.2 116C92.6 114.8 93.8 113.9 95.1 113.8L219.3 112.2C234 111.5 250 99.6 255.6 85L262.7 66.5C263 65.7 263.1 64.9 262.9 64.1C254.9 27.9 222.6 0.899994 184 0.899994C148.4 0.899994 118.2 23.9 107.4 55.8C100.4 50.6 91.5 47.8 81.9 48.7C64.8 50.4 51.1 64.1 49.4 81.2C49 85.6 49.3 89.9 50.3 93.9C22.4 94.7 0.100006 117.5 0.100006 145.6C0.100006 148.1 0.300006 150.6 0.600006 153.1C0.800006 154.3 1.8 155.2 3 155.2H230.2C231.5 155.2 232.7 154.3 233.1 153L234.8 146.9Z"/>
<path d="M274 67.8C272.9 67.8 271.7 67.8 270.6 67.9C269.8 67.9 269.1 68.5 268.8 69.3L264 86C261.9 93.2 262.7 99.8 266.2 104.7C269.4 109.2 274.8 111.8 281.3 112.1L307.5 113.7C308.3 113.7 309 114.1 309.4 114.7C309.8 115.3 309.9 116.2 309.7 116.9C309.3 118.1 308.1 119 306.8 119.1L279.5 120.7C264.7 121.4 248.8 133.3 243.2 147.9L241.2 153C240.8 154 241.5 155 242.6 155H336.4C337.5 155 338.5 154.3 338.8 153.2C340.4 147.4 341.3 141.3 341.3 135C341.3 98 311.1 67.8 274 67.8Z" />
</svg>
