<svg width="21" height="25" viewBox="0 0 21 25" fill="none" xmlns="http://www.w3.org/2000/svg">
<path d="M8.03241 7.5221C8.39724 8.25568 13.4793 9.75815 13.6957 9.75815C16.4551 10.4973 18.3759 11.3502 19.458 12.3168C20.486 13.3403 21 14.7049 21 16.4107C21 18.9125 20.1343 20.8457 18.4029 22.2103C16.7797 23.4612 14.345 24.0867 11.0986 24.0867C8.01461 24.0867 5.71513 23.4328 4.20016 22.125C2.63109 20.8173 1.84657 18.9125 1.84657 16.4107V16.1548H7.36535C7.41946 17.292 7.82525 18.1449 8.58273 18.7135C9.39432 19.2821 10.4764 19.5664 11.8291 19.5664C12.803 19.5664 13.6416 19.3674 14.345 18.9693C14.9943 18.5713 15.3189 18.0312 15.3189 17.3489C15.3189 16.3254 14.1827 15.5578 11.9102 15.0461C10.9363 14.8755 10.2059 14.7049 9.71895 14.5343C6.85133 13.7951 4.9306 12.9138 3.95669 11.8904C2.87457 10.8669 2.33352 9.50229 2.33352 7.79651C2.33352 7.70437 2.33494 7.6129 2.3378 7.5221H0L5.19415 2.30863L10.3883 7.5221H8.03241ZM5.61869 1.77608C7.09201 0.899801 8.89159 0.46167 11.0175 0.46167C13.831 0.46167 16.0764 1.11554 17.7537 2.42331C19.3227 3.8448 20.1614 5.69271 20.2696 7.96708H16.7798C15.7517 7.96708 14.9672 7.48379 14.4262 6.51717L13.7769 5.83486C13.1276 5.32313 12.2349 5.06727 11.0986 5.06727C10.3091 5.06727 9.66364 5.15807 9.16214 5.33967L5.61869 1.77608Z"/>
</svg>
