<svg
   width="48"
   height="48"
   viewBox="0 0 12.7 12.7">
  <g>
    <path
       d="m 7.0743704,7.4350315 -0.485144,-0.441865 -0.751973,0.538272 1.107746,1.004239 c 0.177886,0.1606776 0.43663,0.2008466 0.66303,0.104441 0.226401,-0.09641 0.363858,-0.321357 0.363858,-0.562374 v -2.072748 l -0.905602,0.642712 v 0.787323 z"
       id="Shape"
       fill-rule="nonzero"
       style="stroke-width:0.264583" />
    <path
       d="m 7.9799734,3.5225195 c 0.105115,0.160678 0.210229,0.337424 0.32343,0.522204 l 0.7358023,-0.522204 c -0.347687,-0.562374 -0.6468593,-1.02834 -0.8247453,-1.325595 -0.145544,-0.232983 -0.428545,-0.345458 -0.695374,-0.265119 -0.266829,0.07231 -0.444716,0.313323 -0.444716,0.586476 v 2.410172 l 0.905603,-0.642713 z"
       id="path269"
       fill-rule="nonzero"
       style="stroke-width:0.264583" />
    <path
       d="m 12.208815,1.9800095 c -0.210229,-0.104441 -0.452801,-0.08837 -0.638773,0.0482 l -0.81666,0.578441 -0.363858,0.265119 -8.6193971,6.1459386 -0.727717,0.522204 V 3.2011605 l 3.7275255,3.366206 0.751974,-0.538271 -4.3501275,-3.920547 C 0.99389585,1.9478705 0.72706683,1.9077015 0.50875183,2.0041075 c -0.226401,0.09641 -0.363858,0.321357 -0.363858,0.562374 v 7.5438395 c 0,0.232984 0.129371,0.441865 0.331515,0.546306 0.08894,0.0482 0.185972,0.06427 0.283001,0.06427 0.129371,0 0.25065807,-0.04017 0.35577207,-0.112475 l 1.180518,-0.8596289 8.6193971,-6.1459386 0.727716,-0.522204 v 4.62753 C 11.11724,6.8565865 10.429953,5.7398735 9.7911797,4.7115335 l -0.735803,0.522204 c 0.8894316,1.422002 1.8678063,3.004681 2.3529503,3.8080716 0.145543,0.241017 0.420458,0.345458 0.695373,0.273153 0.26683,-0.07231 0.452802,-0.313323 0.452802,-0.586475 V 2.5263145 c -0.01617,-0.232983 -0.145544,-0.441864 -0.347687,-0.546305 z"
       id="path271"
       fill-rule="nonzero"
       style="stroke-width:0.264583" />
  </g>
</svg>
