<?xml version="1.0" encoding="UTF-8"?>
<svg width="70px" height="90px" viewBox="0 0 70 90" version="1.1" xmlns="http://www.w3.org/2000/svg" xmlns:xlink="http://www.w3.org/1999/xlink">
    <!-- Generator: Sketch 51.2 (57519) - http://www.bohemiancoding.com/sketch -->
    <title>Group</title>
    <desc>Created with Sketch.</desc>
    <defs></defs>
    <g id="Page-1" stroke="none" stroke-width="1" fill="none" fill-rule="evenodd">
        <g id="Group" transform="translate(0.000000, -0.362180)" fill="#000000" fill-rule="nonzero">
            <path d="M35,0.36218 C30.7663,0.36218 27.1785,2.82168 25.3438,6.36218 L19,6.36218 C17.3432144,6.36234565 16.0001657,7.70539437 16,9.36218 L16,10.36218 L3,10.36218 C1.4466,10.36308 0.0157,11.72878 3.55271368e-15,13.36218 L3.55271368e-15,87.3622 C0.0002,88.933 1.4292,90.362 3,90.3622 L67,90.3622 C68.5708,90.362 69.9998,88.933 70,87.3622 L70,13.36218 C69.9998,11.79138 68.5708,10.36238 67,10.36218 L54,10.36218 L54,9.36218 C53.9998343,7.70539437 52.6567856,6.36234565 51,6.36218 L44.6563,6.36218 C42.8215,2.82168 39.2337,0.36218 35,0.36218 Z M35,6.36218 C37.3789,6.36218 39.292,7.92638 39.8438,10.08098 C40.1739646,11.4183884 41.372444,12.3591259 42.75,12.36218 L48,12.36218 L48,16.36218 L22,16.36218 L22,12.36218 L27.25,12.36218 C28.6275933,12.3591717 29.8261264,11.4184245 30.1563,10.08098 C30.708,7.92638 32.6211,6.36218 35,6.36218 Z M6,16.36218 L16,16.36218 L16,19.36218 C16.0001657,21.0189656 17.3432144,22.3620143 19,22.36218 L51,22.36218 C52.6567856,22.3620143 53.9998343,21.0189656 54,19.36218 L54,16.36218 L64,16.36218 L64,84.3622 L6,84.3622 L6,16.36218 Z" id="Shape"></path>
        </g>
    </g>
</svg>